<svg xmlns="http://www.w3.org/2000/svg" width="380" height="144" viewBox="0 0 95 36" fill="none" aria-hidden="true">
  <g transform="scale(0.856)" fill="#FFFFFF">
    <path fill-rule="evenodd" clip-rule="evenodd" d="M9.92573 0.176676C10.1609 -0.0589007 10.5422 -0.0588832 10.7774 0.176676L20.5413 9.95753C20.7763 10.1931 20.7763 10.5752 20.5413 10.8108L10.3399 21.0302L20.541 31.2497C20.7761 31.4852 20.776 31.867 20.541 32.1026L10.7774 41.8837C10.5422 42.1194 10.1609 42.1194 9.92573 41.8837L0.352935 32.2938C0.244448 32.1851 0.159178 32.0575 0.0994736 31.9191C0.0932301 31.9046 0.0871669 31.8901 0.0814897 31.8754C0.0775368 31.8652 0.0739231 31.8548 0.0702497 31.8445C0.0631578 31.8245 0.0563422 31.8045 0.0502988 31.7842C0.0489643 31.7797 0.0476474 31.7752 0.0463648 31.7707C0.0160027 31.6643 2.23038e-05 31.5532 0 31.4405V10.6199C3.97776e-05 10.3199 0.111597 10.0313 0.311628 9.81003L0.352935 9.76667L9.92573 0.176676ZM10.3705 0.584294C10.3601 0.573823 10.343 0.573886 10.3326 0.584294L0.759821 10.1743C0.641801 10.2925 0.575522 10.453 0.575486 10.6199V29.9967L20.1341 10.4032C20.1444 10.3929 20.1447 10.3758 20.1341 10.3652L10.3705 0.584294Z"/>
  </g>
  <g transform="translate(22, 9.5) scale(0.86)" fill="#FFFFFF">
    <path d="M0.103408 17.3267C0.0344695 17.2577 0 17.1282 0 16.9383C0 16.6965 0.0344695 16.5757 0.103408 16.5757C0.258521 16.5757 0.465338 16.5584 0.723859 16.5239C0.982381 16.4721 1.22367 16.403 1.44772 16.3167C1.67177 16.2304 1.80103 16.144 1.8355 16.0577C1.90444 15.816 1.94753 15.5052 1.96476 15.1254C1.99923 14.7455 2.01647 14.288 2.01647 13.7527V3.70408C2.01647 3.16884 1.99923 2.7113 1.96476 2.33146C1.94753 1.93435 1.90444 1.62356 1.8355 1.39911C1.80103 1.29551 1.67177 1.20918 1.44772 1.14012C1.22367 1.05379 0.982381 0.98473 0.723859 0.932933C0.465338 0.881136 0.258521 0.855237 0.103408 0.855237C0.0344695 0.855237 0 0.743011 0 0.518556C0 0.311367 0.0344695 0.173241 0.103408 0.104179C0.258521 0.173241 0.517042 0.121444 0.878972 0.155976C1.25814 0.173241 1.66315 0.19914 2.09402 0.233672C2.52489 0.250937 2.89544 0.25957 3.20566 0.25957C3.75718 0.25957 4.30869 0.242304 4.8602 0.207773C5.41171 0.155976 5.85981 0.121444 6.20451 0.104179C6.23898 0.173241 6.2476 0.32 6.23036 0.544455C6.23036 0.751643 6.20451 0.855237 6.1528 0.855237C6.0494 0.855237 5.86843 0.889769 5.60991 0.958832C5.35139 1.01063 5.1101 1.07969 4.88605 1.16602C4.662 1.23508 4.53274 1.31278 4.49827 1.39911C4.34316 1.98614 4.2656 2.789 4.2656 3.80768V8.02915L4.44656 8.18454H4.62753C5.17904 8.18454 5.67885 7.93418 6.12695 7.43348C7.1438 6.31121 8.01416 5.30979 8.73802 4.42924C9.47911 3.54869 10.0909 2.79763 10.5735 2.17607C10.9872 1.67536 11.194 1.34731 11.194 1.19192C11.194 0.898402 10.7028 0.751643 9.7204 0.751643C9.65146 0.751643 9.61699 0.673948 9.61699 0.518556C9.61699 0.432227 9.61699 0.363164 9.61699 0.311367C9.63422 0.242304 9.65146 0.173241 9.66869 0.104179C10.1685 0.13871 10.6683 0.173241 11.1681 0.207773C11.6679 0.242304 12.0902 0.25957 12.4349 0.25957C12.7279 0.25957 13.0467 0.250937 13.3914 0.233672C13.7533 0.19914 14.0808 0.173241 14.3738 0.155976C14.684 0.121444 14.9081 0.104179 15.0459 0.104179C15.0804 0.173241 15.089 0.302735 15.0718 0.492658C15.0718 0.665315 15.0459 0.751643 14.9942 0.751643C13.9601 0.872503 13.1673 1.23508 12.6158 1.83938L7.41956 7.89965C7.28168 8.05504 7.342 8.28813 7.60052 8.59892L13.8309 15.462C14.1756 15.8246 14.6151 16.1009 15.1493 16.2908C15.5865 16.4462 15.9425 16.5811 16.3562 16.5811C16.4423 16.5811 16.4854 16.7365 16.4854 17.0473C16.4854 17.1336 16.4682 17.2286 16.4337 17.3322C15.572 17.2976 15.089 17.2663 14.5547 17.249C14.0205 17.2145 13.6499 17.1973 13.4431 17.1973C12.7192 17.1973 12.0643 17.2145 11.4783 17.249C10.9096 17.2663 10.4012 17.2922 9.95307 17.3267C9.88413 17.2577 9.84966 17.1109 9.84966 16.8865C9.84966 16.6793 9.88413 16.5757 9.95307 16.5757C10.1599 16.5757 10.3926 16.5412 10.6511 16.4721C10.9268 16.403 11.0647 16.2994 11.0647 16.1613C11.0647 15.6088 9.10856 13.3211 5.19628 9.29818C5.12734 9.22911 4.87743 9.19458 4.44656 9.19458C4.32592 9.19458 4.2656 9.26365 4.2656 9.40177V13.6491C4.2656 14.6506 4.34316 15.4534 4.49827 16.0577C4.53274 16.1268 4.662 16.2045 4.88605 16.2908C5.1101 16.3771 5.35139 16.4462 5.60991 16.498C5.86843 16.5498 6.0494 16.5757 6.1528 16.5757C6.20451 16.5757 6.23036 16.6793 6.23036 16.8865C6.2476 17.0937 6.23898 17.2404 6.20451 17.3267C5.34277 17.2922 4.662 17.2663 4.16219 17.249C3.66238 17.2145 3.34354 17.1973 3.20566 17.1973L0.103408 17.3267Z"/>
    <path d="M17.997 17.2485C17.9281 17.1794 17.8936 17.0499 17.8936 16.86C17.8936 16.6183 17.9281 16.4974 17.997 16.4974C18.2038 16.4974 18.471 16.4542 18.7984 16.3679C19.1259 16.2816 19.3499 16.1607 19.4706 16.0053C19.6602 15.7636 19.8497 15.4442 20.0393 15.0471C20.2461 14.65 20.4616 14.1579 20.6856 13.5709L25.1839 1.99419C25.2873 1.73521 25.3476 1.55392 25.3649 1.45032C25.3993 1.34673 25.4252 1.2604 25.4424 1.19134C25.4769 1.10501 25.5372 0.966881 25.6234 0.776958C25.744 0.535237 25.8647 0.345315 25.9853 0.207189C26.106 0.0690629 26.3042 0 26.5799 0L26.8126 0.0776958L31.983 13.7522C32.1381 14.1493 32.276 14.5032 32.3966 14.814C32.5345 15.1248 32.6465 15.3924 32.7327 15.6168C32.8017 15.7895 32.9482 15.9449 33.1722 16.083C33.4135 16.2039 33.6548 16.3075 33.8961 16.3938C34.1546 16.4629 34.3528 16.4974 34.4907 16.4974C34.5596 16.4974 34.5941 16.6614 34.5941 16.9895C34.5941 17.024 34.5855 17.0672 34.5682 17.119C34.5682 17.1535 34.5596 17.1967 34.5424 17.2485C33.6806 17.2139 33.0085 17.188 32.5259 17.1708C32.0606 17.1362 31.7848 17.119 31.6986 17.119L28.6998 17.2485C28.6309 17.1794 28.5964 17.0413 28.5964 16.8341C28.6136 16.6096 28.6567 16.4974 28.7256 16.4974C28.9325 16.4974 29.191 16.4542 29.5012 16.3679C29.8114 16.2816 29.9924 16.1694 30.0441 16.0312C30.0613 15.9622 30.07 15.8931 30.07 15.824C30.0872 15.755 30.0958 15.6859 30.0958 15.6168C30.0958 15.3924 30.07 15.1334 30.0182 14.8399C29.9665 14.5291 29.9062 14.2874 29.8373 14.1147L28.6739 10.9033C28.6222 10.8342 28.5705 10.7997 28.5188 10.7997C27.8467 10.7479 27.1917 10.722 26.5541 10.722C26.106 10.722 25.6062 10.7393 25.0546 10.7738C24.5204 10.7911 23.9258 10.817 23.2708 10.8515L23.1416 10.9292L22.0299 13.778C21.8576 14.2097 21.737 14.5723 21.668 14.8658C21.6163 15.1593 21.5905 15.3924 21.5905 15.5651C21.5905 15.8068 21.6594 15.9794 21.7973 16.083C21.9524 16.2039 22.2023 16.3075 22.547 16.3938C22.8917 16.4629 23.1416 16.4974 23.2967 16.4974C23.3484 16.4974 23.3743 16.601 23.3743 16.8082C23.3915 17.0154 23.3829 17.1621 23.3484 17.2485L20.6856 17.119C20.2031 17.0844 19.7291 17.0931 19.2638 17.1449C18.8157 17.1794 18.3934 17.2139 17.997 17.2485ZM25.6492 9.47888C26.4248 9.47888 27.209 9.45298 28.0018 9.40119L28.0793 9.27169L25.9853 3.54811L23.762 9.32349C23.762 9.39255 23.7793 9.42709 23.8137 9.42709C24.2618 9.44435 24.6324 9.46162 24.9254 9.47888C25.2356 9.47888 25.4769 9.47888 25.6492 9.47888Z"/>
    <path d="M41.8538 17.508C41.4402 17.508 41.0007 17.4735 40.5353 17.4044C40.07 17.3526 39.6822 17.2922 39.372 17.2231C38.7343 17.1023 38.269 17.0073 37.976 16.9382C37.7002 16.8519 37.4417 16.7915 37.2004 16.7569C36.9764 15.6865 36.8126 14.8145 36.7092 14.1412C36.6058 13.4506 36.5541 12.9498 36.5541 12.6391C36.5541 12.5355 36.692 12.4837 36.9678 12.4837C37.278 12.4837 37.4934 12.5614 37.6141 12.7168C38.2173 15.203 39.6478 16.4462 41.9055 16.4462C42.7673 16.4462 43.4997 16.1872 44.1029 15.6692C44.7062 15.1512 45.0078 14.4174 45.0078 13.4678C45.0078 13.157 44.9388 12.7772 44.801 12.3283C44.6803 11.8794 44.3959 11.4909 43.9478 11.1628C43.6031 10.9039 43.3188 10.7139 43.0947 10.5931C42.8707 10.4549 42.6466 10.3341 42.4226 10.2305C42.1985 10.1096 41.9141 9.94561 41.5694 9.73842L40.5353 9.11685C40.0011 8.7888 39.4668 8.41759 38.9325 8.00321C38.3982 7.57157 37.9501 7.07087 37.5882 6.5011C37.2435 5.93133 37.0712 5.28386 37.0712 4.5587C37.0712 3.64362 37.3038 2.8494 37.7692 2.17603C38.2517 1.4854 38.8722 0.950167 39.6305 0.570321C40.4061 0.190475 41.242 0.000551482 42.1382 0.000551482C42.5173 0.000551482 42.8707 0.0264501 43.1981 0.0782472C43.5428 0.112779 43.8272 0.155943 44.0512 0.20774C44.5683 0.3286 44.9302 0.423562 45.137 0.492625C45.3611 0.561688 45.6627 0.639383 46.0419 0.725712C46.2487 1.62353 46.3521 2.85803 46.3521 4.42921C46.3521 4.55007 46.2659 4.6105 46.0936 4.6105C45.6627 4.6105 45.4386 4.52417 45.4214 4.35151C45.3352 3.83354 45.1456 3.3242 44.8527 2.8235C44.5597 2.32279 44.1633 1.90841 43.6635 1.58037C43.1636 1.23505 42.569 1.06239 41.8797 1.06239C41.173 1.06239 40.6215 1.20052 40.2251 1.47677C39.8287 1.73576 39.5444 2.07244 39.372 2.48682C39.2169 2.88393 39.1393 3.30694 39.1393 3.75585C39.1393 4.18749 39.2427 4.61913 39.4496 5.05078C39.6564 5.48242 39.958 5.845 40.3544 6.13852C40.8887 6.53563 41.4229 6.90684 41.9572 7.25216C42.5087 7.59747 43.0775 7.95142 43.6635 8.314C44.215 8.65931 44.7665 9.04779 45.318 9.47943C45.8695 9.89381 46.3262 10.3686 46.6882 10.9039C47.0673 11.4391 47.2569 12.0607 47.2569 12.7686C47.2569 13.6836 47.007 14.5038 46.5072 15.2289C46.0074 15.9368 45.3438 16.498 44.5166 16.9123C43.7065 17.3094 42.819 17.508 41.8538 17.508Z"/>
    <path d="M57.4426 17.249C55.3917 17.249 53.8147 16.6447 52.7117 15.4361C51.6087 14.2275 51.0572 12.2765 51.0572 9.58303V3.70405C51.0572 3.16881 51.0399 2.71127 51.0055 2.33142C50.9882 1.93431 50.9451 1.62353 50.8762 1.39908C50.8417 1.29548 50.7125 1.20915 50.4884 1.14009C50.2644 1.05376 50.0231 0.984698 49.7646 0.9329C49.506 0.881103 49.2992 0.855205 49.1441 0.855205C49.0752 0.855205 49.0407 0.742978 49.0407 0.518523C49.0407 0.311335 49.0752 0.173209 49.1441 0.104146L52.2464 0.233639C52.3842 0.233639 52.7031 0.225006 53.2029 0.20774C53.7027 0.173209 54.3835 0.138677 55.2452 0.104146C55.2797 0.242272 55.2969 0.363132 55.2969 0.466726C55.2969 0.725712 55.2624 0.855205 55.1935 0.855205C55.0901 0.855205 54.9091 0.889736 54.6506 0.958799C54.3921 1.0106 54.1508 1.07966 53.9267 1.16599C53.7027 1.23505 53.5734 1.31275 53.539 1.39908C53.3839 1.98611 53.3063 2.78897 53.3063 3.80764V9.58303C53.3063 11.5341 53.7199 13.088 54.5472 14.2448C55.3745 15.4016 56.5464 15.98 58.0631 15.98C61.0102 15.98 62.4838 14.0376 62.4838 10.1528V3.67815C62.4838 2.59041 62.4235 1.83072 62.3028 1.39908C62.2684 1.29548 62.1133 1.20052 61.8375 1.11419C61.5617 1.02786 61.2687 0.958799 60.9585 0.907002C60.6483 0.837939 60.4156 0.803408 60.2605 0.803408C60.1916 0.803408 60.1571 0.699813 60.1571 0.492625C60.1571 0.302702 60.1916 0.173209 60.2605 0.104146C60.4156 0.104146 60.6742 0.121412 61.0361 0.155943C61.398 0.173209 61.7858 0.199107 62.1994 0.233639C62.6303 0.250904 63.0008 0.259537 63.3111 0.259537C63.7592 0.259537 64.3279 0.233639 65.0173 0.181842C65.6895 0.130044 66.0859 0.104146 66.2065 0.104146C66.241 0.242272 66.2582 0.371765 66.2582 0.492625C66.2582 0.699813 66.2237 0.803408 66.1548 0.803408C66.0514 0.803408 65.836 0.837939 65.5085 0.907002C65.181 0.976065 64.8708 1.05376 64.5778 1.14009C64.3021 1.22642 64.147 1.31275 64.1125 1.39908C64.0435 1.67533 63.9918 2.01201 63.9574 2.40912C63.9229 2.80623 63.9057 3.27241 63.9057 3.80764V10.101C63.9057 11.8794 63.6558 13.2952 63.156 14.3484C62.6561 15.3843 61.9237 16.1267 60.9585 16.5757C59.9934 17.0246 58.8214 17.249 57.4426 17.249Z"/>
  </g>
</svg>
