<svg xmlns="http://www.w3.org/2000/svg" viewBox="0 0 20.7175 42.0605" fill="none" aria-hidden="true">
  <path fill-rule="evenodd" clip-rule="evenodd" d="M9.92573 0.176676C10.1609 -0.0589007 10.5422 -0.0588832 10.7774 0.176676L20.5413 9.95753C20.7763 10.1931 20.7763 10.5752 20.5413 10.8108L10.3399 21.0302L20.541 31.2497C20.7761 31.4852 20.776 31.867 20.541 32.1026L10.7774 41.8837C10.5422 42.1194 10.1609 42.1194 9.92573 41.8837L0.352935 32.2938C0.244448 32.1851 0.159178 32.0575 0.0994736 31.9191C0.0932301 31.9046 0.0871669 31.8901 0.0814897 31.8754C0.0775368 31.8652 0.0739231 31.8548 0.0702497 31.8445C0.0631578 31.8245 0.0563422 31.8045 0.0502988 31.7842C0.0489643 31.7797 0.0476474 31.7752 0.0463648 31.7707C0.0160027 31.6643 2.23038e-05 31.5532 0 31.4405V10.6199C3.97776e-05 10.3199 0.111597 10.0313 0.311628 9.81003L0.352935 9.76667L9.92573 0.176676ZM10.3705 0.584294C10.3601 0.573823 10.343 0.573886 10.3326 0.584294L0.759821 10.1743C0.641801 10.2925 0.575522 10.453 0.575486 10.6199V29.9967L20.1341 10.4032C20.1444 10.3929 20.1447 10.3758 20.1341 10.3652L10.3705 0.584294Z" fill="#FFFFFF"/>
</svg>
